<?xml version="1.0" encoding="utf-8"?>
<!-- Generator: Adobe Illustrator 22.1.0, SVG Export Plug-In . SVG Version: 6.00 Build 0)  -->
<svg version="1.1" id="Layer_1" xmlns="http://www.w3.org/2000/svg" xmlns:xlink="http://www.w3.org/1999/xlink" x="0px" y="0px"
	 viewBox="0 0 24 24" style="enable-background:new 0 0 24 24;" xml:space="preserve">
<style type="text/css">
	.st0{fill:none;}
	.st1{fill:#7367F0;stroke:#7367F0;stroke-linecap:round;stroke-linejoin:round;stroke-miterlimit:10;}
</style>
<path class="st0" d="M0,0h24v24H0V0z"/>
<path class="st1" d="M8.5,16.4L8,16.9C8,17,7.9,17,7.8,17s-0.2,0-0.2-0.1l-4.8-4.8C2.7,12,2.7,12,2.7,11.9s0-0.2,0.1-0.2l4.8-4.8
	c0.1-0.1,0.1-0.1,0.2-0.1S8,6.8,8,6.9l0.5,0.5c0.1,0.1,0.1,0.1,0.1,0.2c0,0.1,0,0.2-0.1,0.2l-4,4l4,4c0.1,0.1,0.1,0.1,0.1,0.2
	S8.6,16.3,8.5,16.4z M14.6,5.4l-3.8,13.3c0,0.1-0.1,0.2-0.2,0.2s-0.2,0.1-0.2,0l-0.6-0.2c-0.1,0-0.2-0.1-0.2-0.2s-0.1-0.2,0-0.3
	l3.8-13.3c0-0.1,0.1-0.2,0.2-0.2s0.2-0.1,0.2,0L14.4,5c0.1,0,0.2,0.1,0.2,0.2C14.6,5.3,14.6,5.3,14.6,5.4z M21.4,12.1l-4.8,4.8
	C16.5,17,16.4,17,16.3,17c-0.1,0-0.2,0-0.2-0.1l-0.5-0.5c-0.1-0.1-0.1-0.1-0.1-0.2s0-0.2,0.1-0.2l4-4l-4-4c-0.1-0.1-0.1-0.1-0.1-0.2
	c0-0.1,0-0.2,0.1-0.2l0.5-0.5c0.1-0.1,0.1-0.1,0.2-0.1c0.1,0,0.2,0,0.2,0.1l4.8,4.8c0.1,0.1,0.1,0.1,0.1,0.2S21.4,12,21.4,12.1z"/>
</svg>
