<?xml version="1.0" encoding="utf-8"?>
<!-- Generator: Adobe Illustrator 22.0.1, SVG Export Plug-In . SVG Version: 6.00 Build 0)  -->
<svg version="1.1" id="Layer_1" xmlns="http://www.w3.org/2000/svg" xmlns:xlink="http://www.w3.org/1999/xlink" x="0px" y="0px"
	 viewBox="0 0 24 24" style="enable-background:new 0 0 24 24;" xml:space="preserve">
<style type="text/css">
	.st0{fill:none;}
	.st1{fill:#7367F0;}
</style>
<path class="st0" d="M0,0h24v24H0V0z"/>
<path class="st1" d="M19.4,10c-0.7-3.4-3.7-6-7.4-6C9.1,4,6.6,5.6,5.4,8C2.3,8.4,0,10.9,0,14c0,3.3,2.7,6,6,6h13c2.8,0,5-2.2,5-5
	C24,12.4,22,10.2,19.4,10z M19,18H6c-2.2,0-4-1.8-4-4s1.8-4,4-4s4,1.8,4,4h2c0-2.8-1.9-5.1-4.4-5.8C8.6,6.9,10.2,6,12,6
	c3,0,5.5,2.5,5.5,5.5V12H19c1.6,0,3,1.4,3,3S20.6,18,19,18z"/>
</svg>
